<?xml version="1.0" encoding="UTF-8"?>
<svg version="1.1" viewBox="0 0 1428 2048" width="417" height="598" xmlns="http://www.w3.org/2000/svg">
<path transform="translate(682,396)" d="m0 0h47l25 4 25 7 20 8 27 14 25 15 21 12 51 30 26 15 24 14 53 31 29 17 28 16 50 30 15 10 10 8 14 12 12 12 9 11 8 10 12 19 11 21 8 21 6 22 4 26 1 22v375l-2 24-3 17-7 24-6 16-12 24-9 14-12 16-12 13-6 7h-2v2l-8 7-15 12-15 10-29 17-19 11-27 16-23 13-20 12-25 14-22 13-51 30-24 14-26 15-17 10-29 17-19 10-19 8-26 8-18 4-19 2h-32l-19-2-15-3-27-8-21-9-29-16-20-12-21-12-24-14-32-19-19-11-28-16-22-13-67-39-41-24-13-8-15-9-16-11-13-11-10-9-14-14-13-17-10-15-12-22-10-27-5-21-4-25-1-11v-390l3-23 6-27 7-20 6-14 10-19 9-13 10-14 10-11 2-3h2l2-4 11-10 14-11 16-11 25-15 24-14 19-11 27-16 23-13 19-11 15-9 43-25 17-10 62-36 27-16 21-12 25-12 26-8 25-5zm12 104-19 3-13 4-16 8-22 13-20 12-14 8-22 13-17 10-21 12-11 8-7 4 3 1 26-11 22-8 31-9 42-9 30-4 11-1h57l37 4 46 10 33 10 25 9 21 9h2v-2l-8-5-19-12-21-12-24-14-27-16-24-14-18-10-14-6-18-4-10-1zm-18 61-27 2-30 4-26 6-23 6-28 10-25 10-17 8-19 10-22 13-30 20-9 7-10 8 4-5 15-12 16-11 7-5-2-1-22 12-10 6-11 6-21 12-19 11-23 13-19 12-10 8-8 7-9 11-7 10-8 15-7 21-3 13-1 22v15l1 39 4-2 8-26 8-20 7-15 13-25 15-24 8-11 5-7-7 12-12 19-8 14-13 28-11 27-7 22-6 22-4 19-1 28v50l1 51 2 3v-36l2-22 4-35 5-26 7-25 13-37 13-29 11-20 10-17 16-24 13-18 13-16 10-12-4 6-14 19-10 14-11 17-9 15-10 18-11 23-11 28-9 30-5 24-7 49-1 13v65l3 24 6 32 5 19 9 26 11 22 14 22 12 17 10 13 9 10 7 8 16 17 17 16 14 12 15 12 17 11 16 10 21 13 18 10 14 8 17 9 28 13 25 10 18 6 13 4 25 4h7l-3 5-5 7-6 1-15-3-31-9-25-10-26-12-25-13-25-15-20-13-15-10-18-13-16-12-17-14-11-10-8-7-32-32v3l7 11 8 10 11 13 7 8 9 10 21 21h2v2l8 7 14 11 14 10 18 11 13 8 17 9 31 14 30 12 36 12 19 5 35 6h56l45-4 31-4 36-7 30-7 23-7 26-11 19-10 22-14 16-11 16-12 7-5-10 9-34 26-15 10-15 9-20 11-24 10-26 8-37 9-35 6-38 5-28 2h-55l-24-3-33-7-15-4-24-8-13-5-11-4-3 1 14 10 11 6 10 6 19 11 14 8 17 10 19 11 23 13 17 7 12 3 9 1h27l19-3 12-4 16-8 21-12 24-14 26-15 22-13 16-9 20-11 18-10 12-7 15-9 21-13 35-21 19-11 15-9 26-15 21-12 15-10 15-14 10-12 9-15 6-14 5-17 2-12v-96l-2-3-6 16-10 27-9 21-8 17-13 23-13 21-13 19-9 12-9 11h-1l12-16 13-20 8-14 12-22 7-14 10-24 9-25 7-24 5-23 3-21 2-21 1-20v-29l-2-32-4-31-4-22-7-24-2-4h-2l-5 19h-2l-4-12-5-10-7-16-8-16-12-22-13-21-10-14-8-11-11-14-11-13-27-27-22-18-19-14-10-7-24-15-28-15-24-11-26-10-31-10-41-10-30-5-31-3-28-2-27 1-32 3-24 4-27 7-33 11-23 10-23 12-15 9-15 10-17 12 4-4 17-13 13-9 15-10 13-8 22-12 19-9 21-8 21-7 28-7 25-4 32-2h25l26 1 29 3 30 5 25 6 37 11 33 12 26 11 23 12 19 11 22 14 10 7 14 11 10 8 13 11 2-1-3-4h-2l-2-4-5-5-17-16-13-11-17-12-10-7-29-17-22-12-31-14-34-14-25-7-21-5-25-4-41-3zm-165 35m-58 33-1 2 3-1zm530 15m1 1 5 5 15 14 3 1 1 3 8 7 10 10 7 8 10 11 11 14 8 10 6 9 13 20 14 24 8 16 11 25 8 23 7 21 5 16 2 4h2v-97l-4-18-6-17-9-17-10-13-8-9-8-7-14-10-25-14-24-14-15-9-18-11-11-5zm-712 422v108l2 17 6 21 7 16 11 16 11 12 10 9 14 10 21 12 19 11 20 12 21 13 11 7 6 1-2-4-14-11-17-16-8-7-10-10-7-8-13-16-13-19-11-18-13-24-8-15-12-28-19-59-8-27-2-3z" fill="#00DAA5"/>
<path transform="translate(592,662)" d="m0 0 21 1 16 4 16 7 16 10 14 10 19 13 16 11 21 14 16 11 17 12 42 28 31 21 16 11 22 15 15 10 22 15 12 8 35 24 21 14 17 12 13 11 7 7 9 14 5 11 4 14 1 8v18l-4 17-5 13-8 12-11 13-11 9-17 12-44 29-23 16-30 20-19 13-25 17-28 19-12 8-16 11-25 17-23 16-44 29-14 10-19 13-13 8-14 6-17 5-21 1-16-1-19-6-17-8-12-9-10-9-9-12-6-10-6-18-2-12-1-20v-448l2-17 4-15 5-12 10-14 9-10 13-10 17-9 13-5 11-2zm12 115-1 2v415l2 2 16-10 54-36 11-8 12-8 37-25 30-20 16-11 35-24 27-18 22-15 16-11 12-8 16-11 4-5-5-5-11-8-15-10-22-15-18-12-23-16-27-18-22-15-19-13-24-16-22-15-12-8-17-12-14-9-16-11-39-26z" fill="#00DAA5"/>
<path transform="translate(682,396)" d="m0 0h47l25 4 25 7 20 8 27 14 25 15 21 12 51 30 26 15 24 14 53 31 29 17 28 16 50 30 15 10 10 8 14 12 12 12 9 11 8 10 12 19 11 21 8 21 6 22 4 26 1 22v375l-2 24-3 17-7 24-6 16-12 24-9 14-12 16-12 13-6 7h-2v2l-8 7-15 12-15 10-29 17-19 11-27 16-23 13-20 12-25 14-22 13-51 30-24 14-26 15-17 10-29 17-19 10-19 8-26 8-18 4-19 2h-32l-19-2-15-3-27-8-21-9-29-16-20-12-21-12-24-14-32-19-19-11-28-16-22-13-67-39-41-24-13-8-15-9-16-11-13-11-10-9-14-14-13-17-10-15-12-22-10-27-5-21-4-25-1-11v-390l3-23 6-27 7-20 6-14 10-19 9-13 10-14 10-11 2-3h2l2-4 11-10 14-11 16-11 25-15 24-14 19-11 27-16 23-13 19-11 15-9 43-25 17-10 62-36 27-16 21-12 25-12 26-8 25-5zm9 39-26 4-17 5-19 7-23 12-10 6-26 15-17 10-29 17-16 10-21 12-19 11-42 24-25 15-22 13-26 15-21 12-17 10-23 14-18 13-20 20-13 17-9 14-8 16-7 18-6 25-3 19-1 28v352l1 17 5 28 7 24 12 25 7 11 8 11 12 14 16 16 14 10 11 7 16 9 15 9 43 25 10 6 19 11 17 10 19 11 14 8 26 15 15 9 29 17 21 12 17 10 19 11 17 10 19 11 19 9 24 8 7 2 19 3 14 1h13l21-2 15-3 20-6 19-8 17-9 58-34 18-11 11-6 26-15 22-13 13-8 11-6 16-9 38-22 30-18 26-15 24-14 16-9 11-8 12-9 12-11 7-7 9-11 12-17 12-23 9-25 4-18 2-18v-396l-4-26-5-17-6-16-8-16-7-12-9-12-11-13-8-9-11-9-10-8-18-11-22-13-21-12-26-15-22-13-15-9-14-8-48-28-22-13-21-12-27-16-26-15-41-24-21-11-16-6-23-6-20-3z" fill="#055922"/>
<path transform="translate(677,553)" d="m0 0h57l37 4 46 10 33 10 25 9 21 9 19 10 28 15 28 17 10 7 7 4 16 15 10 9 13 13 7 8 10 11 11 14 8 10 6 9 13 20 14 24 8 16 11 25 8 23 7 21 5 16 3 13 1 33v131l-2 21-3 12-11 30-10 24-9 19-13 23-13 21-13 19-9 12-9 11-4 3 2-4 8-11 9-13 11-18 18-32 12-27 10-27 7-23 6-24 4-27 2-21 1-20v-29l-2-32-4-31-4-22-7-24-1-3-2-1-1 8-4 13-3-2-4-12-5-10-7-16-8-16-12-22-13-21-10-14-8-11-11-14-11-13-10-10v-2l-4-2-12-12-22-18-19-14-10-7-24-15-28-15-24-11-26-10-31-10-41-10-30-5-31-3-28-2-27 1-32 3-24 4-27 7-33 11-23 10-23 12-15 9-15 10-17 12-2-1 16-13 20-14 15-10 13-8 22-12 19-9 21-8 21-7 28-7 25-4 32-2h25l26 1 29 3 30 5 25 6 37 11 33 12 26 11 23 12 19 11 22 14 10 7 14 11 10 8 13 11-1-4h-2l-7-8-17-16-13-11-17-12-10-7-29-17-22-12-31-14-34-14-25-7-21-5-25-4-41-3h-41l-27 2-30 4-26 6-23 6-28 10-25 10-17 8-19 10-22 13-30 20-9 7-10 8-2-1 7-7 17-13 13-9 14-9 21-13 22-12 6-3 1-2 45-18 36-11 27-6 26-5z" fill="#FDE348"/>
<path transform="translate(392,711)" d="m0 0v3l-14 19-11 15-13 20-9 15-10 18-11 23-11 28-9 30-5 24-7 49-1 13v65l3 24 6 32 5 19 9 26 11 22 14 22 12 17 10 13 9 10 7 8 16 17 16 15 14 12 15 12 17 11 16 10 21 13 18 10 14 8 17 9 28 13 25 10 18 6 13 4 32 5-1 4-7 9-6 1-15-3-31-9-25-10-26-12-25-13-25-15-20-13-15-10-18-13-16-12-17-14-11-10-8-7-32-32 7 12 9 11 11 13 7 8 9 10 20 20 2 1v2l4 2 11 10 11 8 15 10 19 12 24 13 31 14 30 12 36 12 19 5 35 6h56l45-4 31-4 36-7 30-7 23-7 26-11 19-10 22-14 16-11 16-12 6-5 2 1-11 10-34 26-15 10-15 9-20 11-24 10-26 8-37 9-35 6-38 5-28 2h-55l-24-3-33-7-15-4-24-8-13-5-15-5-19-10-21-12-22-13-19-11-10-7-3-1-5-5-13-11-15-14-8-7-11-11-7-8-13-16-13-19-11-18-13-24-8-15-12-28-19-59-8-27-2-5-1-27 1-4h3l-2-15v-26l2-22 4-35 5-26 7-25 13-37 13-29 11-20 10-17 16-24 13-18 13-16z" fill="#FEE346"/>
<path transform="translate(341,733)" d="m0 0v3l-15 24-11 19-13 28-11 27-7 22-6 22-3 13-2-1v-19l5-16 7-21 7-18 7-15 13-25 15-24 8-11z" fill="#FEE34C"/>
<path transform="translate(468,621)" d="m0 0m-1 1m-2 1 4 2-16 10-24 16-9 7-10 8-2-1 7-7 17-13 13-9 14-9z" fill="#FEF5C7"/>
<path transform="translate(510,595)" d="m0 0 2 1-3 1-1 3-25 13-21 13-5 3-7 3-6 2 3-3 14-8 10-6 14-8 17-10z" fill="#055922"/>
<path transform="translate(898,594)" d="m0 0 6 2 16 10 11 6 1 2-6-2-29-15z" fill="#055922"/>
<path transform="translate(439,640)" d="m0 0 2 3-12 8-9 7-10 8-2-1 7-7 17-13z" fill="#FEFDFA"/>
<path transform="translate(951,625)" d="m0 0 5 1 24 14 6 4-3 1-5-2-15-10-12-7z" fill="#055922"/>
<path transform="translate(461,649)" d="m0 0h5l-5 4-18 13-5 2 5-5 15-12z" fill="#FEFEFE"/>
<path transform="translate(985,1311)" d="m0 0 2 1-11 10-14 11-2-3 14-10z" fill="#FEFEFE"/>
<path transform="translate(392,711)" d="m0 0v3l-13 18-3-1 4-6z" fill="#FEED8E"/>
<path transform="translate(1107,893)" d="m0 0 3 1 5 10 1 6-5-5-4-11z" fill="#FEE65C"/>
<path transform="translate(468,621)" d="m0 0m-1 1m-2 1 4 2-11 7-7 1 4-4z" fill="#FEF0A3"/>
<path transform="translate(1055,1236)" d="m0 0 3 1-6 8-8 9v-3z" fill="#FEF3B4"/>
<path transform="translate(425,650)" d="m0 0m-1 1m-1 1m-1 1v3l-12 10-2-1 7-7z" fill="#FEFEFE"/>
<path transform="translate(512,1379)" d="m0 0 6 2 8 5 1 2-5-1-10-7z" fill="#055922"/>
<path transform="translate(472,641)" d="m0 0m-1 1m-1 1m-2 1 4 2-5 3-5 1v-2z" fill="#FEE970"/>
<path transform="translate(406,666)" d="m0 0 2 1-4 4-2-1z" fill="#FEFEFE"/>
<path transform="translate(1023,1276)" d="m0 0 2 1-4 3z" fill="#FEFEFE"/>
<path transform="translate(342,731)" d="m0 0" fill="#FEE346"/>
<path transform="translate(987,1310)" d="m0 0" fill="#FEFEFE"/>
<path transform="translate(988,1309)" d="m0 0" fill="#FEFEFE"/>
<path transform="translate(989,1308)" d="m0 0" fill="#FEFEFE"/>
<path transform="translate(1042,1254)" d="m0 0" fill="#FEFEFE"/>
<path transform="translate(343,730)" d="m0 0" fill="#FEE346"/>
<path transform="translate(393,710)" d="m0 0" fill="#FEFEFE"/>
<path transform="translate(398,674)" d="m0 0" fill="#FEFEFE"/>
<path transform="translate(399,673)" d="m0 0" fill="#FEFEFE"/>
<path transform="translate(400,672)" d="m0 0" fill="#FEFEFE"/>
<path transform="translate(401,671)" d="m0 0" fill="#FEFEFE"/>
<path transform="translate(437,668)" d="m0 0" fill="#FEFEFE"/>
</svg>
